<?xml version="1.0" encoding="utf-8"?>
<!-- Uploaded to: SVG Repo, www.svgrepo.com, Generator: SVG Repo Mixer Tools -->
<svg fill="#000000" width="800px" height="800px" viewBox="0 0 32 32" version="1.1" xmlns="http://www.w3.org/2000/svg">
<title>exclamation</title>
<path d="M10.656 8.864q0-2.208 1.568-3.776t3.776-1.568 3.776 1.568 1.6 3.776q0 0.256-0.064 0.448l-1.76 6.944q-0.096 1.408-1.12 2.368t-2.432 0.96q-1.376 0-2.4-0.928t-1.152-2.304q-0.32-0.96-0.672-2.112t-0.736-2.784-0.384-2.592zM12.416 24.928q0-1.472 1.056-2.496t2.528-1.056 2.528 1.056 1.056 2.496q0 1.504-1.056 2.528t-2.528 1.056-2.528-1.056-1.056-2.528z"></path>
</svg>