<?xml version="1.0" encoding="iso-8859-1"?>
<!-- Uploaded to: SVG Repo, www.svgrepo.com, Generator: SVG Repo Mixer Tools -->
<svg fill="#000000" height="800px" width="800px" version="1.1" id="Capa_1" xmlns="http://www.w3.org/2000/svg" xmlns:xlink="http://www.w3.org/1999/xlink" 
	 viewBox="0 0 78.667 78.667" xml:space="preserve">
<g>
	<path d="M9.49,73.833c-1.493,0-2.943-0.24-4.309-0.713l-3.113-1.077l2.392-2.265c3.165-2.997,3.964-6.455,4.016-9.046
		C3.004,54.666,0,47.097,0,39.334c0-19.023,17.645-34.5,39.333-34.5s39.334,15.477,39.334,34.5
		c0,19.022-17.646,34.498-39.334,34.498c-6.458,0-12.827-1.399-18.505-4.057C18.689,71.289,14.366,73.833,9.49,73.833z
		 M20.361,65.078l1.148,0.581c5.397,2.729,11.561,4.173,17.824,4.173c19.483,0,35.334-13.682,35.334-30.498
		c0-16.818-15.851-30.5-35.334-30.5S4,22.516,4,39.334c0,6.99,2.814,13.823,7.925,19.238l0.52,0.552l0.024,0.757
		c0.087,2.72-0.401,6.407-2.818,9.951c4.63-0.074,8.89-3.298,9.705-3.95L20.361,65.078z"/>
</g>
</svg>