<svg viewBox="0 0 76.143 13.286">
  <path fill="#ffffff" d="M 0 2 V 0 h 76.1 v 13.3 H 0 V 2 z"/>
  <path fill="#1185fe" d="M 3.7 2.1 c 1.4 1 2.9 3.1 3.4 4.3 c 0.5 -1.1 2 -3.2 3.4 -4.3 c 1 -0.7 2.6 -1.3 2.6 0.5 c 0 0.4 -0.2 3.1 -0.3 3.5 c -0.4 1.5 -2 1.9 -3.4 1.7 c 2.4 0.4 3.1 1.8 1.7 3.2 c -2.5 2.6 -3.6 -0.7 -3.9 -1.5 c -0.1 -0.2 -0.1 -0.2 -0.1 -0.2 c 0 -0.1 0 0 -0.1 0.2 c -0.3 0.8 -1.4 4.1 -3.9 1.5 c -1.3 -1.4 -0.7 -2.7 1.7 -3.2 c -1.4 0.2 -3 -0.2 -3.4 -1.7 c -0.1 -0.4 -0.3 -3.2 -0.3 -3.5 c 0 -1.8 1.6 -1.3 2.6 -0.5 z"/>
  <text x="14" y="10" fill="#1185fe" stroke-width=".916" font-size="11">
    sanderelias.nl
  </text>
</svg>
